<svg xmlns="http://www.w3.org/2000/svg" id="Layer_1" width="28" height="28" viewBox="0 0 28 28"><g id="g4141"><circle id="circle3922-0-1-0" cx="14" cy="14" r="14" fill="#50b748" fill-rule="evenodd"/><path id="rect7" fill="#fff" d="m 19.222656,6.5039062 c -1.348,0 -2.504093,0.825094 -2.996093,1.996094 l -8.3144537,0 C 7.4101094,8.5000002 7,8.9081562 7,9.4101562 L 7,12.089844 C 7,12.351844 7.1149687,12.584 7.2929687,12.75 7.1149687,12.916 7,13.148156 7,13.410156 l 0,2.679688 C 7,16.351844 7.1149687,16.584 7.2929687,16.75 7.1149687,16.916 7,17.148156 7,17.410156 l 0,2.679688 C 7,20.591844 7.4101094,21 7.9121093,21 L 19.589844,21 C 20.091844,21 20.5,20.591844 20.5,20.089844 l 0,-2.679688 C 20.5,17.148156 20.385031,16.916 20.207031,16.75 20.385031,16.584 20.5,16.351844 20.5,16.089844 l 0,-2.679688 c 0,-0.23 -0.09337,-0.43375 -0.234375,-0.59375 1.279,-0.437 2.207031,-1.6375 2.207031,-3.0624998 0,-1.792 -1.458,-3.25 -3.25,-3.25 z m 0,0.5 c 1.517,0 2.75,1.233 2.75,2.75 0,1.5029998 -1.212937,2.7250938 -2.710937,2.7460938 l -0.07813,0 c -1.498,-0.021 -2.710938,-1.243094 -2.710938,-2.7460938 -10e-4,-1.517 1.234,-2.75 2.75,-2.75 z m 1.31836,1.513672 -1.94336,1.9433588 -0.695312,-0.6953118 -0.353516,0.3535148 0.871094,0.873047 c 0.049,0.048 0.113734,0.07227 0.177734,0.07227 0.064,0 0.126781,-0.02327 0.175781,-0.07227 l 2.121094,-2.1210928 -0.353515,-0.353516 z m -12.6289067,0.482422 8.1582037,0 c -0.059,0.243 -0.09766,0.492906 -0.09766,0.753906 0,1.1589998 0.613297,2.1710938 1.529297,2.7460938 l -9.5898434,0 C 7.6851094,12.5 7.5,12.315844 7.5,12.089844 l 0,-2.6796878 c 0,-0.227 0.1861094,-0.410156 0.4121093,-0.410156 z M 8.75,10.5 l 0,0.5 4,0 0,-0.5 -4,0 z M 7.9121093,13 19.183594,13 c 0.013,0 0.02506,0.0039 0.03906,0.0039 0.014,0 0.02506,-0.0039 0.03906,-0.0039 l 0.328125,0 c 0.227,0 0.412109,0.184156 0.412109,0.410156 l 0,2.679688 c 0,0.227 -0.186109,0.410156 -0.412109,0.410156 l -11.6777347,0 C 7.6851094,16.5 7.5,16.315844 7.5,16.089844 l 0,-2.679688 C 7.5,13.183156 7.6861094,13 7.9121093,13 Z M 18.269531,14.449219 A 0.30000001,0.30000001 0 0 0 17.970703,14.75 0.30000001,0.30000001 0 0 0 18.269531,15.050781 0.30000001,0.30000001 0 0 0 18.570312,14.75 0.30000001,0.30000001 0 0 0 18.269531,14.449219 Z M 8.75,14.499999 l 0,0.5 4,0 0,-0.5 -4,0 z m -0.8378907,2.5 11.6777347,0 c 0.227,0 0.410156,0.184156 0.410156,0.410156 l 0,2.679688 c 0,0.227 -0.184156,0.410156 -0.410156,0.410156 l -11.6777347,0 C 7.6851094,20.499999 7.5,20.315843 7.5,20.089843 l 0,-2.679688 c 0,-0.227 0.1861094,-0.410156 0.4121093,-0.410156 z M 18.24414,18.449218 a 0.30000001,0.30000001 0 0 0 -0.300781,0.300781 0.30000001,0.30000001 0 0 0 0.300781,0.300781 0.30000001,0.30000001 0 0 0 0.300782,-0.300781 0.30000001,0.30000001 0 0 0 -0.300782,-0.300781 z m -9.49414,0.05078 0,0.5 4,0 0,-0.5 -4,0 z"/></g></svg>